<?xml version="1.0" encoding="UTF-8" standalone="no"?>
<svg
   xmlns:dc="http://purl.org/dc/elements/1.1/"
   xmlns:cc="http://creativecommons.org/ns#"
   xmlns:rdf="http://www.w3.org/1999/02/22-rdf-syntax-ns#"
   xmlns:svg="http://www.w3.org/2000/svg"
   xmlns="http://www.w3.org/2000/svg"
   xmlns:sodipodi="http://sodipodi.sourceforge.net/DTD/sodipodi-0.dtd"
   xmlns:inkscape="http://www.inkscape.org/namespaces/inkscape"
   viewBox="0 0 310.3252 120.75521"
   data-background-color="#ffffff"
   preserveAspectRatio="xMidYMid meet"
   height="120.75521"
   width="310.3252"
   version="1.1"
   id="svg102"
   sodipodi:docname="logo.svg"
   inkscape:version="1.0.2-2 (e86c870879, 2021-01-15)">
  <metadata
     id="metadata106">
    <rdf:RDF>
      <cc:Work
         rdf:about="">
        <dc:format>image/svg+xml</dc:format>
        <dc:type
           rdf:resource="http://purl.org/dc/dcmitype/StillImage" />
        <dc:title></dc:title>
      </cc:Work>
    </rdf:RDF>
  </metadata>
  <sodipodi:namedview
     pagecolor="#ffffff"
     bordercolor="#666666"
     borderopacity="1"
     objecttolerance="10"
     gridtolerance="10"
     guidetolerance="10"
     inkscape:pageopacity="0"
     inkscape:pageshadow="2"
     inkscape:window-width="2125"
     inkscape:window-height="1127"
     id="namedview104"
     showgrid="false"
     inkscape:zoom="1.925"
     inkscape:cx="316.72104"
     inkscape:cy="164.43451"
     inkscape:window-x="0"
     inkscape:window-y="0"
     inkscape:window-maximized="0"
     inkscape:current-layer="svg102"
     fit-margin-top="0"
     fit-margin-left="0"
     fit-margin-right="0"
     fit-margin-bottom="0" />
  <g
     id="tight-bounds"
     transform="matrix(0.78460051,0,0,0.81719349,0,18.403067)">
    <svg
       viewBox="0 0 395.52 95.777407"
       height="95.777405"
       width="395.51999"
       version="1.1"
       id="svg95">
      <g
         id="g93">
        <svg
           viewBox="0 0 553.68045 134.07685"
           height="95.777405"
           width="395.51999"
           version="1.1"
           id="svg91">
          <g
             id="g61">
            <rect
               width="8.7490511"
               height="116.41985"
               x="126.50812"
               y="8.8285046"
               fill="#ff5c40"
               opacity="1"
               stroke-width="0"
               stroke="transparent"
               fill-opacity="1"
               class="rect-o-0"
               data-fill-palette-color="primary"
               rx="1%"
               id="o-0"
               data-palette-color="#ff5c40" />
          </g>
          <g
             transform="translate(158.16045,18.530159)"
             id="g78">
            <svg
               viewBox="0 0 395.52 97.016537"
               height="97.016541"
               width="395.51999"
               version="1.1"
               id="svg76">
              <g
                 id="g74">
                <svg
                   viewBox="0 0 395.52 97.016537"
                   height="97.016541"
                   width="395.51999"
                   version="1.1"
                   id="svg72">
                  <g
                     id="g70">
                    <svg
                       viewBox="0 0 395.52 97.016537"
                       height="97.016541"
                       width="395.51999"
                       version="1.1"
                       id="svg68">
                      <g
                         id="g66">
                        <svg
                           width="395.51999"
                           viewBox="2.45 -41.049999 169.79001 41.649998"
                           height="97.016541"
                           data-palette-color="#ff5c40"
                           version="1.1"
                           id="svg64">
                          <path
                             d="m 13.55,0.6 v 0 Q 9.35,0.6 6.93,-1.15 4.5,-2.9 3.48,-6.08 2.45,-9.25 2.45,-13.4 v 0 -13.6 q 0,-4.3 1.1,-7.45 1.1,-3.15 3.78,-4.88 2.67,-1.72 7.27,-1.72 v 0 q 4.5,0 7.08,1.5 2.57,1.5 3.67,4.15 1.1,2.65 1.1,6.2 v 0 2.6 H 17.7 v -3.3 q 0,-1.3 -0.17,-2.4 -0.18,-1.1 -0.8,-1.78 -0.63,-0.67 -2.03,-0.67 v 0 q -1.45,0 -2.1,0.77 -0.65,0.78 -0.82,1.93 -0.18,1.15 -0.18,2.4 v 0 18.75 q 0,1.35 0.28,2.52 0.27,1.18 1,1.9 0.72,0.73 2.07,0.73 v 0 q 1.4,0 2.15,-0.75 0.75,-0.75 1.05,-1.95 0.3,-1.2 0.3,-2.55 v 0 -4.75 H 14.8 V -21 H 26.5 V 0 h -5.9 l -0.5,-3.35 q -0.8,1.7 -2.35,2.82 Q 16.2,0.6 13.55,0.6 Z M 50.4,0 H 32.1 v -40.5 h 18.2 v 6.1 h -9.25 v 10.05 h 7.05 v 6.2 h -7.05 v 12.1 H 50.4 Z M 66.9,0 H 54.45 V -40.5 H 65 q 2.6,0 4.92,0.4 2.33,0.4 4.13,1.52 1.8,1.13 2.82,3.2 1.03,2.08 1.03,5.48 v 0 q 0,2.45 -0.73,4.12 -0.72,1.68 -2.05,2.68 -1.32,1 -3.17,1.35 v 0 q 2.35,0.3 3.95,1.52 1.6,1.23 2.42,3.28 0.83,2.05 0.83,4.95 v 0 q 0,3.15 -0.83,5.42 Q 77.5,-4.3 75.95,-2.85 74.4,-1.4 72.12,-0.7 69.85,0 66.9,0 Z m -3.5,-18.4 v 12.15 h 1.9 q 2.95,0 4.07,-1.5 1.13,-1.5 1.13,-4.4 v 0 q 0,-2.3 -0.5,-3.65 -0.5,-1.35 -1.65,-1.98 -1.15,-0.62 -3.1,-0.62 v 0 z m 0,-16.1 v 10.2 h 1.75 q 2.05,0 3.1,-0.63 1.05,-0.62 1.42,-1.82 0.38,-1.2 0.38,-2.9 v 0 q 0,-1.6 -0.58,-2.68 -0.57,-1.07 -1.7,-1.62 -1.12,-0.55 -2.82,-0.55 v 0 z M 95.89,0 h -9 v -33.85 h -6.1 v -6.65 h 21.15 v 6.65 h -6.05 z m 27.9,0 h -18.3 v -40.5 h 18.2 v 6.1 h -9.25 v 10.05 h 7.05 v 6.2 h -7.05 v 12.1 h 9.35 z m 14.8,0.6 v 0 q -3.8,0 -6.35,-1.35 -2.55,-1.35 -3.85,-4.18 -1.3,-2.82 -1.45,-7.32 v 0 l 7.65,-1.15 q 0.05,2.6 0.47,4.2 0.43,1.6 1.2,2.3 0.78,0.7 1.88,0.7 v 0 q 1.4,0 1.82,-0.95 0.43,-0.95 0.43,-2 v 0 q 0,-2.5 -1.2,-4.23 -1.2,-1.72 -3.25,-3.47 v 0 l -3.5,-3.05 q -2.3,-1.95 -3.88,-4.43 -1.57,-2.47 -1.57,-6.12 v 0 q 0,-5.15 3.05,-7.88 3.05,-2.72 8.3,-2.72 v 0 q 3.25,0 5.22,1.1 1.98,1.1 3,2.87 1.03,1.78 1.4,3.75 0.38,1.98 0.43,3.78 v 0 l -7.7,0.95 q -0.05,-1.8 -0.23,-3.13 -0.17,-1.32 -0.72,-2.04 -0.55,-0.73 -1.7,-0.73 v 0 q -1.25,0 -1.83,1.05 -0.57,1.05 -0.57,2.1 v 0 q 0,2.25 1.07,3.67 1.08,1.43 2.83,2.98 v 0 l 3.35,2.95 q 2.65,2.25 4.47,5.1 1.83,2.85 1.83,7.05 v 0 q 0,2.85 -1.3,5.18 -1.3,2.32 -3.68,3.67 -2.37,1.35 -5.62,1.35 z M 166.19,0 h -9 v -33.85 h -6.1 v -6.65 h 21.15 v 6.65 h -6.05 z"
                             opacity="1"
                             fill="#ff5c40"
                             class="undefined-text-0"
                             data-fill-palette-color="primary"
                             id="text-0" />
                        </svg>
                      </g>
                    </svg>
                  </g>
                </svg>
              </g>
            </svg>
          </g>
          <g
             id="g89">
            <svg
               viewBox="0 0 103.60484 134.07685"
               height="134.07686"
               width="103.60484"
               version="1.1"
               id="svg87">
              <g
                 id="g85">
                <svg
                   viewBox="5 0 34 44"
                   xml:space="preserve"
                   x="0"
                   y="0"
                   height="134.07686"
                   width="103.60484"
                   class="icon-icon-0"
                   data-fill-palette-color="accent"
                   id="icon-0"
                   version="1.1"><path
                     d="m 20,24 c 0,0.6 0.4,1 1,1 h 12 c 0.6,0 1,-0.4 1,-1 0,-0.6 -0.4,-1 -1,-1 H 21 c -0.6,0 -1,0.4 -1,1 z m 1,5 h 6 c 0.6,0 1,-0.4 1,-1 0,-0.6 -0.4,-1 -1,-1 h -6 c -0.6,0 -1,0.4 -1,1 0,0.6 0.4,1 1,1 z m 0,-15 c -0.6,0 -1,0.4 -1,1 0,0.6 0.4,1 1,1 h 10 c 0.6,0 1,-0.4 1,-1 0,-0.6 -0.4,-1 -1,-1 z m 0,6 h 3 c 0.6,0 1,-0.4 1,-1 0,-0.6 -0.4,-1 -1,-1 h -3 c -0.6,0 -1,0.4 -1,1 0,0.6 0.4,1 1,1 z m 9,12 h -9 c -0.6,0 -1,0.4 -1,1 0,0.6 0.4,1 1,1 h 9 c 0.6,0 1,-0.4 1,-1 0,-0.6 -0.4,-1 -1,-1 z m -4,4 h -5 c -0.6,0 -1,0.4 -1,1 0,0.6 0.4,1 1,1 h 5 c 0.6,0 1,-0.4 1,-1 0,-0.6 -0.4,-1 -1,-1 z M 16,23 h -4 c -0.6,0 -1,0.4 -1,1 v 4 c 0,0.6 0.4,1 1,1 h 4 c 0.6,0 1,-0.4 1,-1 v -4 c 0,-0.6 -0.4,-1 -1,-1 z m -1,4 h -2 v -2 h 2 z m 1,-13 h -4 c -0.6,0 -1,0.4 -1,1 v 4 c 0,0.6 0.4,1 1,1 h 4 c 0.6,0 1,-0.4 1,-1 v -4 c 0,-0.6 -0.4,-1 -1,-1 z m -1,4 h -2 v -2 h 2 z m 1,14 h -4 c -0.6,0 -1,0.4 -1,1 v 4 c 0,0.6 0.4,1 1,1 h 4 c 0.6,0 1,-0.4 1,-1 v -4 c 0,-0.6 -0.4,-1 -1,-1 z m -1,4 h -2 v -2 h 2 z"
                     fill="#5dd8a1"
                     data-fill-palette-color="accent"
                     id="path80" /><path
                     d="M 29.7,0.3 C 29.5,0.1 29.3,0 29,0 H 8 C 6.3,0 5,1.3 5,3 v 38 c 0,1.7 1.3,3 3,3 h 28 c 1.7,0 3,-1.3 3,-3 V 10 C 39,9.7 38.9,9.5 38.7,9.3 Z M 30,3.4 35.6,9 H 31 C 30.4,9 30,8.6 30,8 Z m 7,9.6 v 28 c 0,0.6 -0.4,1 -1,1 H 8 C 7.4,42 7,41.6 7,41 V 3 C 7,2.4 7.4,2 8,2 h 20 v 6 c 0,1.7 1.3,3 3,3 h 6 z"
                     fill="#5dd8a1"
                     data-fill-palette-color="accent"
                     id="path82" /></svg>
              </g>
            </svg>
          </g>
        </svg>
      </g>
    </svg>
    <rect
       width="395.51999"
       height="95.777405"
       fill="none"
       stroke="none"
       visibility="hidden"
       id="rect97"
       x="0"
       y="0" />
  </g>
  <defs
     id="defs100" />
</svg>
